<?xml version="1.0" standalone="yes"?>
<svg xmlns="http://www.w3.org/2000/svg" width="512" height="512">
<path style="fill:#0058DB; stroke:none;" d="M29 257L72 257C72.0153 233.913 76.8322 210.418 85.3997 189C93.5316 168.671 105.384 150.476 119.718 134C198.099 43.912 340.153 57.5489 408 152L377 173L429 190.001L469 202L476 106C467.874 109.844 460.45 115.652 453 120.67C450.863 122.109 447.274 125.737 444.464 125.245C440.57 124.563 436.84 116.866 434.551 114C426.528 103.957 417.408 94.8232 408 86.0895C384.386 64.1685 353.779 47.8917 323 38.7207C205.744 3.78287 80.9084 68.6135 40.6952 184C32.6435 207.103 29 232.617 29 257M441 256C441 367.832 335.987 458.532 225 438.386C204.739 434.708 184.876 427.652 167 417.421C144.639 404.623 117.364 384.888 106 361L136 342L136 340C106.522 330.408 74.6495 315.526 44 311L40.0895 367L37 407C48.4394 403.355 60.5096 393.295 70 386C74.2623 397.081 84.8184 406.493 92.8302 414.961C119.961 443.634 155.066 464.596 193 475.421C301.253 506.313 419.367 452.525 465.138 349C478.123 319.631 484 287.967 484 256L441 256z"/>
</svg>
